<svg width="142" height="39" viewBox="0 0 142 39" fill="none" xmlns="http://www.w3.org/2000/svg">
<g id="Layer_1" clip-path="url(#clip0_1_37)">
<path id="Vector" d="M19.8844 4.94206e-05C8.96377 -0.315576 0 8.49038 0 19.3163C0 30.1423 0.946877 26.1023 2.55657 28.9429C2.55657 28.9745 2.58813 29.0061 2.61969 29.0692C5.96533 34.8136 12.2147 38.6642 19.3163 38.6642C26.4179 38.6642 32.6673 34.8136 36.0129 29.0692C36.0129 29.0376 36.0445 29.0061 36.076 28.9429C37.812 25.9129 38.7588 22.4095 38.6326 18.6535C38.2854 8.49038 30.016 0.284113 19.8844 4.94206e-05ZM17.8644 3.62975C18.6535 2.77756 19.9791 2.77756 20.7682 3.62975C22.4094 5.39725 23.3247 7.70132 23.3247 10.1948C23.3247 12.6882 21.9675 15.9391 19.6635 17.7698C19.4741 17.9276 19.1585 17.9276 18.9691 17.7698C16.665 15.9391 15.3078 13.1932 15.3078 10.1948C15.3078 7.19632 16.2232 5.39725 17.8644 3.62975ZM2.14625 19.3795C2.14625 19.3795 2.14625 19.3479 2.14625 19.3163C2.14625 12.9723 5.61814 7.41725 10.7628 4.45037C12.3094 3.53506 14.2032 5.0185 13.6666 6.72288C13.3194 7.82757 13.1616 8.99538 13.1616 10.1948C13.1616 12.3095 13.7297 14.361 14.7397 16.097C14.9607 16.4757 14.6766 16.9492 14.2347 16.9492C12.2147 16.9492 10.1631 17.4857 8.33252 18.5273C7.29095 19.127 6.37564 19.8529 5.58658 20.7051C4.35563 21.9992 2.14625 21.147 2.14625 19.3479V19.3795ZM6.47033 28.4064C5.36564 28.1539 4.70282 26.986 5.01845 25.8814C5.71282 23.5773 7.25939 21.6204 9.40565 20.3895C11.9938 18.906 15.0553 18.6851 17.8013 19.7898C18.0538 19.8845 18.18 20.137 18.1485 20.3895C17.7382 23.2932 16.0022 25.8498 13.4141 27.3332C11.2678 28.5642 8.80596 28.9429 6.43876 28.3748L6.47033 28.4064ZM27.9329 34.1823C25.4079 35.6658 22.4725 36.4864 19.3163 36.4864C16.16 36.4864 13.2563 35.6342 10.6997 34.1823C9.15315 33.267 9.46877 30.9314 11.2047 30.5211C12.341 30.2686 13.4457 29.8267 14.4557 29.227C16.2863 28.1539 17.7697 26.6704 18.7797 24.9029C19.0007 24.5242 19.5372 24.5242 19.7582 24.9029C20.7682 26.6704 22.2516 28.1539 24.0822 29.227C25.1238 29.8267 26.2285 30.2686 27.3332 30.5211C29.1007 30.9314 29.4163 33.2986 27.8382 34.1823H27.9329ZM32.1938 28.4064C29.8582 28.9429 27.3647 28.5957 25.2185 27.3648C22.6304 25.8814 20.926 23.3248 20.4841 20.421C20.4525 20.1685 20.5788 19.916 20.8313 19.8213C23.5772 18.7167 26.6388 18.9376 29.2269 20.421C31.3732 21.652 32.9198 23.6089 33.6141 25.9129C33.9613 27.0176 33.2985 28.1854 32.1623 28.4379L32.1938 28.4064ZM36.5179 19.3795C36.5179 21.1785 34.3085 22.0307 33.0776 20.7367C32.2885 19.8845 31.3732 19.1585 30.3316 18.5588C28.501 17.4857 26.481 16.9807 24.4294 16.9807C23.9876 16.9807 23.7035 16.5073 23.9244 16.1285C24.9344 14.361 25.5026 12.341 25.5026 10.2263C25.5026 8.11163 25.3132 7.85913 24.9976 6.75444C24.461 5.0185 26.3547 3.56662 27.9013 4.48194C33.046 7.44882 36.5179 13.0038 36.5179 19.3479C36.5179 25.692 36.5179 19.3795 36.5179 19.411V19.3795Z" fill="#98D0BE"/>
<path id="Vector_2" d="M51.51 18.2431C51.4785 18.4956 51.6678 18.7166 51.9203 18.7166H63.3144C63.5354 18.7166 63.7247 18.5272 63.7247 18.3062V16.5703C63.7247 16.3494 63.5354 16.16 63.3144 16.16H55.266C55.0135 16.16 54.8241 15.9391 54.8557 15.6866L55.2029 13.4456C55.2344 13.2562 55.4238 13.0984 55.6132 13.0984H62.7463C62.9672 13.0984 63.1566 12.909 63.1566 12.6881V11.1731C63.1566 10.9522 62.9672 10.7628 62.7463 10.7628H55.6132C55.3922 10.7628 55.2344 10.605 55.2029 10.4156L54.8557 8.17466C54.8241 7.92216 55.0135 7.70122 55.266 7.70122H63.2197C63.4407 7.70122 63.6301 7.51185 63.6301 7.29091V5.55497C63.6301 5.33403 63.4407 5.14465 63.2197 5.14465H51.9203C51.6678 5.14465 51.4785 5.36559 51.51 5.61809L52.4885 11.899C52.4885 11.9306 52.4885 11.9937 52.4885 12.0253L51.51 18.3062V18.2431Z" fill="white"/>
<path id="Vector_3" d="M67.2914 18.3064C68.2383 18.7482 69.3114 19.0007 70.5739 19.0007C71.8364 19.0007 72.6571 18.8114 73.5408 18.4326C74.4246 18.0539 75.1505 17.5173 75.7186 16.8545C76.1605 16.3179 76.4761 15.6867 76.6655 15.0238C76.7286 14.7713 76.5077 14.5188 76.2552 14.5188H74.0458C73.8564 14.5188 73.6986 14.6451 73.6355 14.8029C73.4461 15.3395 73.1305 15.7498 72.6571 16.097C72.0889 16.5073 71.3945 16.6967 70.5739 16.6967C69.7533 16.6967 69.3745 16.5704 68.9011 16.3179C68.4277 16.0654 68.0489 15.7182 67.7964 15.2448C67.5439 14.7713 67.4177 14.2032 67.4177 13.572C67.4177 12.9407 67.5439 12.341 67.7964 11.8676C68.0489 11.3941 68.4277 11.047 68.9011 10.7945C69.3745 10.542 69.9427 10.4157 70.5739 10.4157C71.2052 10.4157 72.0574 10.6051 72.6255 10.9838C73.0989 11.2995 73.4461 11.7729 73.6355 12.3095C73.6986 12.4988 73.8564 12.5935 74.0458 12.5935H76.2552C76.5392 12.5935 76.7286 12.341 76.6655 12.057C76.5077 11.3626 76.1921 10.7629 75.7186 10.2263C75.1505 9.56352 74.4246 9.02696 73.5408 8.6482C72.6571 8.26945 71.6471 8.08008 70.5739 8.08008C69.5008 8.08008 68.2383 8.30102 67.2914 8.77445C66.3445 9.24789 65.6186 9.87915 65.082 10.6998C64.5455 11.5204 64.293 12.4673 64.293 13.5404C64.293 14.6135 64.5455 15.5604 65.082 16.381C65.6186 17.2017 66.3445 17.8645 67.2914 18.3064Z" fill="white"/>
<path id="Vector_4" d="M89.6376 16.4126C90.1742 15.592 90.4582 14.6451 90.4582 13.572C90.4582 12.4988 90.1742 11.5204 89.6376 10.6998C89.101 9.87915 88.3435 9.24789 87.3651 8.77445C86.3867 8.33258 85.2504 8.08008 83.9879 8.08008C82.7254 8.08008 81.5576 8.30102 80.6107 8.77445C79.6323 9.21633 78.8748 9.87915 78.3382 10.6998C77.8016 11.5204 77.5176 12.4673 77.5176 13.572C77.5176 14.6767 77.8016 15.592 78.3382 16.4126C78.8748 17.2332 79.6323 17.8645 80.6107 18.3379C81.5891 18.7798 82.7254 19.0323 83.9879 19.0323C85.2504 19.0323 86.4182 18.8114 87.3651 18.3379C88.3435 17.896 89.101 17.2332 89.6376 16.4126ZM85.787 16.3179C85.282 16.5704 84.6823 16.6967 83.9563 16.6967C83.2304 16.6967 82.6623 16.5704 82.1573 16.3179C81.6523 16.0654 81.242 15.6867 80.9895 15.2448C80.7054 14.7713 80.5791 14.2348 80.5791 13.572C80.5791 12.9092 80.7054 12.341 80.9895 11.8991C81.2735 11.4257 81.6523 11.0785 82.1573 10.826C82.6623 10.5735 83.262 10.4473 83.9563 10.4473C84.6507 10.4473 85.282 10.5735 85.787 10.826C86.292 11.0785 86.6707 11.4573 86.9548 11.8991C87.2388 12.3726 87.3651 12.9407 87.3651 13.572C87.3651 14.2032 87.2388 14.7713 86.9548 15.2448C86.6707 15.7182 86.292 16.0654 85.787 16.3179Z" fill="white"/>
<path id="Vector_5" d="M98.7594 11.2995C99.1697 11.7729 99.3591 12.4988 99.3591 13.4142V18.3064C99.3591 18.5273 99.5484 18.7167 99.7694 18.7167H101.979C102.2 18.7167 102.389 18.5273 102.389 18.3064V13.6982C102.389 13.067 102.484 12.4988 102.705 12.0254C102.926 11.552 103.21 11.2048 103.62 10.9523C104.03 10.6998 104.504 10.5735 105.04 10.5735C105.829 10.5735 106.398 10.826 106.808 11.2995C107.218 11.7729 107.408 12.4988 107.408 13.4142V18.3064C107.408 18.5273 107.597 18.7167 107.818 18.7167H110.027C110.248 18.7167 110.438 18.5273 110.438 18.3064V12.9723C110.438 11.9623 110.28 11.0785 109.933 10.3526C109.585 9.62664 109.08 9.05852 108.418 8.67977C107.755 8.26945 106.966 8.08008 106.05 8.08008C105.135 8.08008 104.504 8.26945 103.841 8.67977C103.178 9.09008 102.642 9.65821 102.2 10.4157C102.137 10.542 102.073 10.6366 102.01 10.7629C101.947 10.6366 101.916 10.4788 101.853 10.3526C101.505 9.62664 101 9.05852 100.338 8.67977C99.6747 8.26945 98.8856 8.08008 97.9703 8.08008C97.055 8.08008 96.4237 8.26945 95.7609 8.67977C95.0981 9.09008 94.5616 9.65821 94.1197 10.4157C94.0881 10.4788 94.0565 10.542 93.9934 10.6366L93.6778 8.71133C93.6462 8.52195 93.4569 8.36414 93.2675 8.36414H91.0897C90.8372 8.36414 90.6162 8.61664 90.6794 8.86914L91.2475 11.836V11.8991V18.3064C91.2475 18.5273 91.4369 18.7167 91.6578 18.7167H93.8672C94.0881 18.7167 94.2775 18.5273 94.2775 18.3064V13.6982C94.2775 13.067 94.3722 12.4988 94.5931 12.0254C94.8141 11.552 95.0981 11.2048 95.5084 10.9523C95.9187 10.6998 96.3922 10.5735 96.9287 10.5735C97.7178 10.5735 98.2859 10.826 98.6963 11.2995H98.7594Z" fill="white"/>
<path id="Vector_6" d="M70.2268 20.5157H66.1552C65.9974 20.5157 65.8396 20.6104 65.7764 20.7682L61.4208 30.016C61.263 30.3317 60.7895 30.3317 60.6633 30.016L56.3077 20.7682C56.2445 20.6104 56.0867 20.5157 55.9289 20.5157H51.8573C51.6364 20.5157 51.447 20.7051 51.447 20.926V33.2985C51.447 33.5195 51.6364 33.7088 51.8573 33.7088H53.9405C54.1614 33.7088 54.3508 33.5195 54.3508 33.2985V25.0291C54.3508 24.5873 54.9505 24.461 55.1398 24.8713L59.3061 33.4563C59.3692 33.6142 59.527 33.6773 59.6849 33.6773H62.3361C62.4939 33.6773 62.6517 33.5826 62.7149 33.4563L66.8496 24.8713C67.0389 24.4926 67.6386 24.6188 67.6386 25.0291V33.267C67.6386 33.4879 67.828 33.6773 68.0489 33.6773H70.1636C70.3846 33.6773 70.5739 33.4879 70.5739 33.267V20.8944C70.5739 20.6735 70.3846 20.4841 70.1636 20.4841L70.2268 20.5157Z" fill="white"/>
<path id="Vector_7" d="M80.958 23.8297C80.1058 23.2931 79.0642 23.0406 77.8648 23.0406C76.6655 23.0406 75.6239 23.2616 74.7086 23.735C73.7933 24.1769 73.0673 24.8397 72.5308 25.6288C71.9942 26.4494 71.7417 27.3963 71.7417 28.4694C71.7417 29.5425 72.0258 30.521 72.5623 31.3416C73.1304 32.1622 73.888 32.825 74.8348 33.2669C75.8133 33.7088 76.8864 33.9613 78.1173 33.9613C79.3483 33.9613 80.0742 33.8351 80.9895 33.551C81.8102 33.2985 82.5361 32.9513 83.1989 32.541C83.3252 32.4779 83.3883 32.32 83.3883 32.1938V31.1207C83.3883 30.805 83.0411 30.6157 82.7886 30.7419C82.3152 30.9944 81.8102 31.1838 81.2736 31.3416C80.4845 31.5625 79.6955 31.6888 78.9064 31.6888C78.1173 31.6888 77.2967 31.5625 76.697 31.2785C76.0973 31.026 75.6239 30.6157 75.3083 30.1107C75.1505 29.8266 75.3398 29.4794 75.687 29.4794H83.262C83.5145 29.4794 83.7039 29.29 83.6724 29.0375C83.6092 27.9328 83.3883 26.9228 82.978 26.1022C82.5045 25.1553 81.8417 24.3978 80.9895 23.8613L80.958 23.8297ZM80.1058 27.4278H75.4976C75.182 27.4278 74.9926 27.0807 75.1189 26.8282C75.1189 26.7966 75.1505 26.7335 75.182 26.7019C75.4345 26.26 75.7817 25.9128 76.2551 25.6603C76.697 25.4078 77.2336 25.2816 77.8648 25.2816C78.4961 25.2816 78.938 25.4078 79.3483 25.6288C79.7586 25.8497 80.1058 26.1969 80.3583 26.6072C80.3898 26.6703 80.453 26.765 80.4845 26.8282C80.6108 27.1122 80.4214 27.4278 80.1058 27.4278Z" fill="white"/>
<path id="Vector_8" d="M94.4036 23.6403C93.7092 23.23 92.857 23.0406 91.8786 23.0406C90.9001 23.0406 90.2373 23.23 89.5429 23.6403C88.8486 24.0507 88.2489 24.6188 87.807 25.3763C87.7439 25.471 87.7123 25.5341 87.6492 25.6288L87.3336 23.6719C87.302 23.4825 87.1126 23.3247 86.9232 23.3247H84.7454C84.4929 23.3247 84.272 23.5772 84.3351 23.8297L84.9032 26.7966V26.8597V33.2669C84.9032 33.4879 85.0926 33.6772 85.3135 33.6772H87.5229C87.7439 33.6772 87.9332 33.4879 87.9332 33.2669V28.6588C87.9332 28.0275 88.0595 27.4594 88.2804 26.986C88.5329 26.5125 88.8486 26.1653 89.2904 25.9128C89.7323 25.6603 90.2373 25.5341 90.837 25.5341C91.6892 25.5341 92.352 25.7866 92.7939 26.26C93.2358 26.7335 93.4567 27.4594 93.4567 28.3747V33.2669C93.4567 33.4879 93.6461 33.6772 93.867 33.6772H96.0764C96.2973 33.6772 96.4867 33.4879 96.4867 33.2669V27.9328C96.4867 26.9228 96.2973 26.0391 95.9501 25.3132C95.5714 24.5872 95.0664 24.0191 94.372 23.6403H94.4036Z" fill="white"/>
<path id="Vector_9" d="M106.524 31.247C106.334 31.3101 106.145 31.3732 105.956 31.4364C105.545 31.531 105.103 31.5942 104.567 31.5942C103.746 31.5942 103.147 31.4364 102.831 31.1207C102.484 30.8051 102.326 30.237 102.326 29.4479V26.1023C102.326 25.8813 102.515 25.692 102.736 25.692H106.492C106.713 25.692 106.903 25.5026 106.903 25.2817V23.8298C106.903 23.6088 106.713 23.4195 106.492 23.4195H102.736C102.515 23.4195 102.326 23.2301 102.326 23.0091V21.1154C102.326 20.8945 102.137 20.7051 101.916 20.7051H100.874C100.716 20.7051 100.558 20.7998 100.495 20.9576L99.3906 23.5141C99.3275 23.6088 99.2644 23.7035 99.1381 23.7351L97.4337 24.3032C97.2759 24.3663 97.1497 24.5242 97.1497 24.7135V25.3448C97.1497 25.5657 97.339 25.7551 97.56 25.7551H98.8856C99.1065 25.7551 99.2959 25.9445 99.2959 26.1654V29.9529C99.2959 30.7735 99.4537 31.4995 99.7694 32.1307C100.085 32.762 100.59 33.2354 101.253 33.5826C101.916 33.9298 102.799 34.0876 103.904 34.0876C105.009 34.0876 105.135 34.0245 105.703 33.8982C106.145 33.8035 106.524 33.7089 106.839 33.5826C106.997 33.5195 107.123 33.3617 107.123 33.1723V31.7204C107.123 31.4364 106.839 31.2154 106.555 31.3101L106.524 31.247Z" fill="white"/>
<path id="Vector_10" d="M117.286 23.735C116.308 23.2931 115.172 23.0406 113.909 23.0406C112.647 23.0406 111.479 23.2616 110.532 23.735C109.554 24.1769 108.796 24.8397 108.26 25.6603C107.723 26.481 107.439 27.4278 107.439 28.5325C107.439 29.6372 107.723 30.5525 108.26 31.3732C108.796 32.1938 109.554 32.825 110.532 33.2985C111.511 33.7404 112.647 33.9929 113.909 33.9929C115.172 33.9929 116.34 33.7719 117.286 33.2985C118.265 32.8566 119.022 32.1938 119.559 31.3732C120.096 30.5525 120.38 29.6057 120.38 28.5325C120.38 27.4594 120.096 26.481 119.559 25.6603C119.022 24.8397 118.265 24.2085 117.286 23.735ZM116.876 30.2054C116.592 30.6788 116.213 31.026 115.708 31.2785C115.203 31.531 114.604 31.6572 113.878 31.6572C113.152 31.6572 112.584 31.531 112.079 31.2785C111.574 31.026 111.163 30.6472 110.911 30.2054C110.627 29.7319 110.501 29.1954 110.501 28.5325C110.501 27.8697 110.627 27.3016 110.911 26.8597C111.195 26.3863 111.574 26.0391 112.079 25.7866C112.584 25.5341 113.183 25.4078 113.878 25.4078C114.572 25.4078 115.203 25.5341 115.708 25.7866C116.213 26.0391 116.592 26.4178 116.876 26.8597C117.16 27.3332 117.286 27.9013 117.286 28.5325C117.286 29.1638 117.16 29.7319 116.876 30.2054Z" fill="white"/>
<path id="Vector_11" d="M129.28 23.1353C129.185 23.1353 129.059 23.1038 128.965 23.0722C128.712 23.0722 128.491 23.0406 128.27 23.0406C127.576 23.0406 126.945 23.1985 126.44 23.4825C125.935 23.7666 125.493 24.1453 125.145 24.6503C125.082 24.745 125.019 24.8397 124.956 24.9344C124.767 25.2816 124.23 25.1869 124.167 24.7766L123.978 23.6719C123.946 23.4825 123.757 23.3247 123.567 23.3247H121.358C121.105 23.3247 120.885 23.5772 120.948 23.8297L121.516 26.7019C121.516 26.7019 121.516 26.765 121.516 26.7966V33.2985C121.516 33.5194 121.705 33.7088 121.926 33.7088H124.135C124.356 33.7088 124.546 33.5194 124.546 33.2985V29.2269C124.546 28.4063 124.672 27.7435 124.956 27.2069C125.24 26.6703 125.619 26.2916 126.092 26.0075C126.566 25.755 127.134 25.6288 127.734 25.6288C128.333 25.6288 128.302 25.6288 128.617 25.6919C128.775 25.6919 128.933 25.7235 129.059 25.755C129.312 25.7866 129.564 25.5972 129.564 25.3447V23.5772C129.564 23.3878 129.406 23.1985 129.217 23.1669L129.28 23.1353Z" fill="white"/>
<path id="Vector_12" d="M141.59 28.9113C141.337 28.4695 140.864 28.1223 140.233 27.8382C139.601 27.5542 138.718 27.3648 137.581 27.2701L135.056 27.0807C134.362 27.0176 133.888 26.9229 133.636 26.7651C133.383 26.6073 133.257 26.4179 133.257 26.1654C133.257 25.8182 133.478 25.5341 133.888 25.3763C134.299 25.187 134.898 25.1238 135.656 25.1238C136.413 25.1238 136.887 25.187 137.329 25.3448C137.739 25.5026 138.086 25.692 138.307 25.9129C138.465 26.0707 138.56 26.2285 138.654 26.3863C138.718 26.5441 138.875 26.6388 139.033 26.6388H141.306C141.59 26.6388 141.779 26.3548 141.716 26.1023C141.59 25.6288 141.306 25.187 140.927 24.7766C140.39 24.2401 139.696 23.8298 138.812 23.5141C137.928 23.1985 136.95 23.0723 135.814 23.0723C134.678 23.0723 133.762 23.1985 132.91 23.451C132.089 23.7035 131.427 24.0823 130.953 24.5873C130.48 25.0923 130.259 25.692 130.259 26.4495C130.259 27.207 130.417 27.4595 130.701 27.9329C130.985 28.3748 131.458 28.7535 132.153 29.0376C132.847 29.3217 133.762 29.511 134.898 29.6057L136.824 29.7635C137.644 29.8267 138.213 29.9529 138.528 30.0792C138.844 30.2054 139.002 30.4263 139.002 30.7104C139.002 30.9945 138.781 31.4048 138.339 31.5942C137.897 31.7835 137.234 31.8782 136.382 31.8782C135.53 31.8782 135.214 31.8151 134.741 31.6888C134.267 31.5626 133.888 31.3732 133.604 31.1207C133.383 30.9313 133.226 30.742 133.131 30.521C133.068 30.3632 132.91 30.237 132.721 30.237H130.417C130.164 30.237 129.943 30.4895 130.006 30.742C130.133 31.2785 130.385 31.7835 130.795 32.2254C131.332 32.7935 132.058 33.2354 132.973 33.551C133.92 33.8667 135.025 34.0245 136.287 34.0245C137.55 34.0245 138.56 33.8982 139.412 33.6142C140.264 33.3301 140.895 32.9513 141.337 32.4148C141.779 31.8782 142 31.247 142 30.4895C142 29.732 141.874 29.4163 141.621 28.9745L141.59 28.9113Z" fill="white"/>
</g>
<defs>
<clipPath id="clip0_1_37">
<rect width="142" height="38.6326" fill="white"/>
</clipPath>
</defs>
</svg>
